HIERARCHY
ROOT hip
{
  OFFSET 0 0 0
  CHANNELS 6 Xposition Yposition Zposition Zrotation Yrotation Xrotation
  JOINT abdomen
  {
    OFFSET 0 20.6881 -0.73152
    CHANNELS 3 Zrotation Xrotation Yrotation
    JOINT chest
    {
      OFFSET 0 11.7043 -0.48768
      CHANNELS 3 Zrotation Xrotation Yrotation
      JOINT neck
      {
        OFFSET 0 22.1894 -2.19456
        CHANNELS 3 Zrotation Xrotation Yrotation
        JOINT head
        {
          OFFSET -0.24384 7.07133 1.2192
          CHANNELS 3 Zrotation Xrotation Yrotation
          JOINT leftEye
          {
            OFFSET 4.14528 8.04674 8.04672
            CHANNELS 3 Zrotation Xrotation Yrotation
            End Site
            {
              OFFSET 1 0 0
            }
          }
          JOINT rightEye
          {
            OFFSET -3.6576 8.04674 8.04672
            CHANNELS 3 Zrotation Xrotation Yrotation
            End Site
            {
              OFFSET 1 0 0
            }
          }
        }
      }
      JOINT rCollar
      {
        OFFSET -2.68224 19.2634 -4.8768
        CHANNELS 3 Zrotation Xrotation Yrotation
        JOINT rShldr
        {
          OFFSET -8.77824 -1.95073 1.46304
          CHANNELS 3 Zrotation Xrotation Yrotation
          JOINT rForeArm
          {
            OFFSET -28.1742 -1.7115 0.48768
            CHANNELS 3 Zrotation Xrotation Yrotation
            JOINT rHand
            {
              OFFSET -22.5879 0.773209 7.07136
              CHANNELS 3 Zrotation Xrotation Yrotation
              JOINT rThumb1
              {
                OFFSET -1.2192 -0.487915 3.41376
                CHANNELS 3 Zrotation Xrotation Yrotation
                JOINT rThumb2
                {
                  OFFSET -3.37035 -0.52449 3.41376
                  CHANNELS 3 Zrotation Xrotation Yrotation
                  End Site
                  {
                    OFFSET -1.78271 -1.18214 1.43049
                  }
                }
              }
              JOINT rIndex1
              {
                OFFSET -7.75947 0.938293 5.60832
                CHANNELS 3 Zrotation Xrotation Yrotation
                JOINT rIndex2
                {
                  OFFSET -2.54057 -0.884171 1.56538
                  CHANNELS 3 Zrotation Xrotation Yrotation
                  End Site
                  {
                    OFFSET -1.62519 -0.234802 1.16502
                  }
                }
              }
              JOINT rMid1
              {
                OFFSET -8.24714 1.18213 3.41376
                CHANNELS 3 Zrotation Xrotation Yrotation
                JOINT rMid2
                {
                  OFFSET -3.10165 -0.590103 1.0647
                  CHANNELS 3 Zrotation Xrotation Yrotation
                  End Site
                  {
                    OFFSET -2.48547 -0.328903 0.83742
                  }
                }
              }
              JOINT rRing1
              {
                OFFSET -8.82822 0.546677 1.51678
                CHANNELS 3 Zrotation Xrotation Yrotation
                JOINT rRing2
                {
                  OFFSET -2.60934 -0.819778 -0.0198488
                  CHANNELS 3 Zrotation Xrotation Yrotation
                  End Site
                  {
                    OFFSET -2.33842 -0.294052 0.168128
                  }
                }
              }
              JOINT rPinky1
              {
                OFFSET -8.27202 -0.0477905 -0.4584
                CHANNELS 3 Zrotation Xrotation Yrotation
                JOINT rPinky2
                {
                  OFFSET -1.82734 -0.647385 -0.700984
                  CHANNELS 3 Zrotation Xrotation Yrotation
                  End Site
                  {
                    OFFSET -1.69225 -0.51767 -0.607171
                  }
                }
              }
            }
          }
        }
      }
      JOINT lCollar
      {
        OFFSET 2.68224 19.2634 -4.8768
        CHANNELS 3 Zrotation Xrotation Yrotation
        JOINT lShldr
        {
          OFFSET 8.77824 -1.95073 1.46304
          CHANNELS 3 Zrotation Xrotation Yrotation
          JOINT lForeArm
          {
            OFFSET 28.1742 -1.7115 0.48768
            CHANNELS 3 Zrotation Xrotation Yrotation
            JOINT lHand
            {
              OFFSET 22.5879 0.773209 7.07136
              CHANNELS 3 Zrotation Xrotation Yrotation
              JOINT lThumb1
              {
                OFFSET 1.2192 -0.487915 3.41376
                CHANNELS 3 Zrotation Xrotation Yrotation
                JOINT lThumb2
                {
                  OFFSET 3.37035 -0.52449 3.41376
                  CHANNELS 3 Zrotation Xrotation Yrotation
                  End Site
                  {
                    OFFSET 1.78271 -1.18214 1.43049
                  }
                }
              }
              JOINT lIndex1
              {
                OFFSET 7.75947 0.938293 5.60832
                CHANNELS 3 Zrotation Xrotation Yrotation
                JOINT lIndex2
                {
                  OFFSET 2.54057 -0.884171 1.56538
                  CHANNELS 3 Zrotation Xrotation Yrotation
                  End Site
                  {
                    OFFSET 1.62519 -0.234802 1.16502
                  }
                }
              }
              JOINT lMid1
              {
                OFFSET 8.24714 1.18213 3.41376
                CHANNELS 3 Zrotation Xrotation Yrotation
                JOINT lMid2
                {
                  OFFSET 3.10165 -0.590103 1.0647
                  CHANNELS 3 Zrotation Xrotation Yrotation
                  End Site
                  {
                    OFFSET 2.48547 -0.328903 0.83742
                  }
                }
              }
              JOINT lRing1
              {
                OFFSET 8.82822 0.546677 1.51678
                CHANNELS 3 Zrotation Xrotation Yrotation
                JOINT lRing2
                {
                  OFFSET 2.60934 -0.819778 -0.0198488
                  CHANNELS 3 Zrotation Xrotation Yrotation
                  End Site
                  {
                    OFFSET 2.33842 -0.294052 0.168128
                  }
                }
              }
              JOINT lPinky1
              {
                OFFSET 8.27202 -0.0477905 -0.4584
                CHANNELS 3 Zrotation Xrotation Yrotation
                JOINT lPinky2
                {
                  OFFSET 1.82734 -0.647385 -0.700984
                  CHANNELS 3 Zrotation Xrotation Yrotation
                  End Site
                  {
                    OFFSET 1.69225 -0.51767 -0.607171
                  }
                }
              }
            }
          }
        }
      }
    }
  }
  JOINT rButtock
  {
    OFFSET -8.77824 4.35084 1.2192
    CHANNELS 3 Zrotation Xrotation Yrotation
    JOINT rThigh
    {
      OFFSET 0 -1.70687 -2.19456
      CHANNELS 3 Zrotation Xrotation Yrotation
      JOINT rShin
      {
        OFFSET 0 -36.8199 0.73152
        CHANNELS 3 Zrotation Xrotation Yrotation
        JOINT rFoot
        {
          OFFSET 0.73152 -45.1104 -5.12064
          CHANNELS 3 Zrotation Xrotation Yrotation
          End Site
          {
            OFFSET -1.1221 -3.69964 12.103
          }
        }
      }
    }
  }
  JOINT lButtock
  {
    OFFSET 8.77824 4.35084 1.2192
    CHANNELS 3 Zrotation Xrotation Yrotation
    JOINT lThigh
    {
      OFFSET 0 -1.70687 -2.19456
      CHANNELS 3 Zrotation Xrotation Yrotation
      JOINT lShin
      {
        OFFSET 0 -36.8199 0.73152
        CHANNELS 3 Zrotation Xrotation Yrotation
        JOINT lFoot
        {
          OFFSET -0.73152 -45.1104 -5.12064
          CHANNELS 3 Zrotation Xrotation Yrotation
          End Site
          {
            OFFSET 1.1221 -3.69964 12.103
          }
        }
      }
    }
  }
}
MOTION
Frames:	6
Frame Time:	0.00833333
-164.143 85.4571 14.958 0.0 0.0 0.0 1.92988 -0.00172183 0.0523824 0.532079 0.00507099 0.0921221 -1.16814e-13 -1.59028e-15 -4.96955e-17 -3.49603e-13 3.18055e-15 -2.51587e-16 -0.0 0.0 0.0 -0.0 0.0 0.0 -5.8296e-14 1.41906e-16 9.93923e-17 -1.22456e-12 2.75193e-15 -4.37326e-15 -2.11393e-11 6.4116e-12 1.81292e-13 -2.41649e-10 -5.7815e-12 -6.04305e-13 -5.70072e-10 1.3679e-12 -8.39666e-13 -9.84491e-10 2.35997e-12 -1.42886e-12 -5.70063e-10 1.37241e-12 -8.46028e-13 7.73091 5.47488 0.417314 -5.70071e-10 1.36853e-12 -8.42847e-13 2.90554 0.965183 0.102902 -5.70057e-10 1.36893e-12 -8.38871e-13 10.2786 0.731801 0.0259123 -5.70077e-10 1.36883e-12 -8.33305e-13 2.22167 -0.733487 -0.20892 -5.8295e-14 1.44818e-16 -1.98785e-16 -1.22758e-12 3.24267e-15 -5.76476e-15 -2.10954e-11 -6.22335e-12 1.59028e-13 -2.41704e-10 6.87971e-12 -5.56597e-13 -5.70089e-10 1.42171e-12 -8.39666e-13 -9.84519e-10 2.44903e-12 -1.42171e-12 -5.70096e-10 1.42648e-12 -8.33305e-13 -7.73091 5.47488 -0.417314 -5.7009e-10 1.4227e-12 -8.36486e-13 -2.90554 0.965183 -0.102902 -5.70104e-10 1.4225e-12 -8.34896e-13 -10.2786 0.731801 -0.0259123 -5.7009e-10 1.42012e-12 -8.36486e-13 -2.22167 -0.733487 0.20892 -2.03217e-16 0.0 -3.88251e-19 1.95948 -7.26116 -0.192017 0.00412066 7.58528 0.107063 -0.521289 -0.330665 0.0523284 2.03217e-16 0.0 3.88251e-19 0.976683 -1.92613 0.000869764 0.00898712 -2.0786 0.0740625 0.487869 3.99809 -0.136737
-157.089 85.6993 5.95188 54.8552 85.4124 53.5633 -0.14381 1.24797 1.05895 1.30165 -0.908372 0.41448 1.4063 -1.45677 0.670116 -1.20501 0.734441 0.911902 -0.0 0.0 0.0 -0.0 0.0 0.0 7.54147e-15 2.1637e-12 2.59197e-15 -4.27492 -0.836476 0.0461159 0.412077 0.183119 -0.599271 -0.000405187 -0.0860187 -0.0120806 1.62235e-10 -3.1828e-09 -5.75777e-10 2.80634e-10 -5.49881e-09 -9.94673e-10 1.62241e-10 -3.1828e-09 -5.75783e-10 7.73091 5.47488 0.417314 1.62235e-10 -3.1828e-09 -5.75778e-10 2.90554 0.965183 0.102902 1.62247e-10 -3.1828e-09 -5.75776e-10 10.2786 0.731801 0.0259123 1.6223e-10 -3.1828e-09 -5.75769e-10 2.22167 -0.733487 -0.20892 7.48356e-15 2.1637e-12 2.26195e-15 4.27472 -0.88267 0.0659488 -0.302207 0.120588 0.464416 0.00497431 -0.302038 0.0420784 1.22152e-10 3.15332e-09 3.60571e-11 2.10605e-10 5.44452e-09 6.23109e-11 1.22147e-10 3.15332e-09 3.60643e-11 -7.73091 5.47488 -0.417314 1.22153e-10 3.15331e-09 3.60595e-11 -2.90554 0.965183 -0.102902 1.2214e-10 3.15331e-09 3.60615e-11 -10.2786 0.731801 -0.0259123 1.22153e-10 3.15332e-09 3.60567e-11 -2.22167 -0.733487 0.20892 -2.03217e-16 0.0 -3.88251e-19 -0.979753 -4.12595 -1.85698 0.00412987 7.98498 0.125785 -0.574304 -4.85382 -1.13817 2.03217e-16 0.0 3.88251e-19 1.03577 1.12532 0.373537 0.00535367 -2.3688 0.0472759 0.607382 0.949922 2.66885
-157.093 85.6929 5.97217 54.8534 85.6256 53.5686 -2.38446 2.56935 2.12518 2.12711 -1.8748 0.755743 2.93158 -2.99468 1.37982 -2.50718 1.50754 1.87559 -0.0 0.0 0.0 -0.0 0.0 0.0 8.05691e-14 4.59984e-12 5.40446e-15 -10.0635 -2.2306 0.123056 1.10738 0.488155 -1.59811 -0.00116111 -0.229383 -0.0322151 9.48552e-10 -6.70111e-09 -1.20706e-09 1.63911e-09 -1.15772e-08 -2.0852e-09 9.48555e-10 -6.70111e-09 -1.20707e-09 7.73091 5.47488 0.417314 9.48551e-10 -6.70111e-09 -1.20706e-09 2.90554 0.965183 0.102902 9.48562e-10 -6.70111e-09 -1.20706e-09 10.2786 0.731801 0.0259123 9.48549e-10 -6.70111e-09 -1.20705e-09 2.22167 -0.733487 -0.20892 8.04456e-14 4.59985e-12 5.03795e-15 10.0704 -2.35378 0.175991 -0.810228 0.321504 1.23846 0.0142508 -0.805432 0.112219 8.91455e-10 6.63031e-09 5.85522e-11 1.53859e-09 1.14479e-08 1.01052e-10 8.91451e-10 6.63032e-09 5.85604e-11 -7.73091 5.47488 -0.417314 8.91456e-10 6.63031e-09 5.85538e-11 -2.90554 0.965183 -0.102902 8.91444e-10 6.6303e-09 5.85564e-11 -10.2786 0.731801 -0.0259123 8.91457e-10 6.63031e-09 5.85481e-11 -2.22167 -0.733487 0.20892 -2.03217e-16 0.0 -3.88251e-19 -3.88884 -0.814115 -3.6084 0.00389331 8.40836 0.145599 -0.837648 -9.62973 -2.42429 2.03217e-16 0.0 3.88251e-19 1.05842 4.3495 0.782358 0.00131554 -2.6719 0.0188703 1.05701 -2.26109 5.626
-157.103 85.6838 6.00221 53.8474 85.766 52.6061 -4.42308 3.7426 3.07789 2.87166 -2.73486 1.06025 4.32135 -4.36792 2.01555 -3.68517 2.20109 2.7375 -0.0 0.0 0.0 -0.0 0.0 0.0 1.39216e-13 6.49081e-12 7.57711e-15 -12.8207 -2.50942 0.138466 1.24772 0.549117 -1.79789 -0.00132438 -0.258056 -0.036242 1.62685e-09 -9.55114e-09 -1.72565e-09 2.81088e-09 -1.65011e-08 -2.98116e-09 1.62685e-09 -9.55114e-09 -1.72566e-09 7.73091 5.47488 0.417314 1.62685e-09 -9.55115e-09 -1.72565e-09 2.90554 0.965183 0.102902 1.62686e-09 -9.55114e-09 -1.72565e-09 10.2786 0.731801 0.0259123 1.62685e-09 -9.55114e-09 -1.72564e-09 2.22167 -0.733487 -0.20892 1.39041e-13 6.49081e-12 7.18343e-15 12.8303 -2.64799 0.198034 -0.912484 0.36167 1.39327 0.016254 -0.906111 0.126249 1.50664e-09 9.45711e-09 1.09851e-10 2.60085e-09 1.63287e-08 1.89776e-10 1.50663e-09 9.45711e-09 1.0986e-10 -7.73091 5.47488 -0.417314 1.50664e-09 9.4571e-09 1.09851e-10 -2.90554 0.965183 -0.102902 1.50663e-09 9.4571e-09 1.09854e-10 -10.2786 0.731801 -0.0259123 1.50664e-09 9.45711e-09 1.09843e-10 -2.22167 -0.733487 0.20892 -2.03217e-16 0.0 -3.88251e-19 -6.31283 2.12933 -5.17913 0.00335517 8.78439 0.16336 -1.25824 -13.8764 -3.61249 2.03217e-16 0.0 3.88251e-19 1.03415 7.22689 1.12762 -0.00272831 -2.94922 -0.00632945 1.7408 -5.0896 8.31125
-157.103 85.685 5.98363 54.6192 85.7159 53.3787 -5.86309 4.55002 3.74124 3.39204 -3.32937 1.27187 5.30017 -5.3318 2.46146 -4.50371 2.69789 3.34331 -0.0 0.0 0.0 -0.0 0.0 0.0 1.61913e-13 7.01883e-12 8.15017e-15 -8.0 4.72161e-09 2.60833e-10 -9.55135e-12 -8.18308e-10 -6.99436e-11 9.4578e-10 -4.11774e-09 -8.32593e-10 2.03509e-09 -1.07305e-08 -1.9625e-09 3.51588e-09 -1.85387e-08 -3.39071e-09 2.03509e-09 -1.07305e-08 -1.9625e-09 7.73091 5.47488 0.417314 2.03509e-09 -1.07305e-08 -1.96249e-09 2.90554 0.965183 0.102902 2.0351e-09 -1.07305e-08 -1.9625e-09 10.2786 0.731801 0.0259123 2.03509e-09 -1.07305e-08 -1.96248e-09 2.22167 -0.733487 -0.20892 1.61719e-13 7.01883e-12 7.7526e-15 8.0 4.72161e-09 -2.60833e-10 1.51812e-10 7.66333e-10 -1.2754e-12 6.48612e-10 4.15136e-09 1.077e-10 1.73651e-09 1.06584e-08 2.33157e-10 2.99881e-09 1.84028e-08 4.03455e-10 1.73651e-09 1.06584e-08 2.33166e-10 -7.73091 5.47488 -0.417314 1.73651e-09 1.06584e-08 2.33157e-10 -2.90554 0.965183 -0.102902 1.7365e-09 1.06584e-08 2.3316e-10 -10.2786 0.731801 -0.0259123 1.73652e-09 1.06584e-08 2.33147e-10 -2.22167 -0.733487 0.20892 -2.03217e-16 0.0 -3.88251e-19 -7.90711 4.17016 -6.28887 0.0026247 9.04207 0.175889 -1.6575 -16.8228 -4.46729 2.03217e-16 0.0 3.88251e-19 0.98395 9.23884 1.3039 -0.00622374 -3.16211 -0.0234906 2.38474 -7.02226 10.2716
-157.101 85.6873 5.97381 55.0621 85.6971 53.8119 -6.37413 4.84498 3.99687 3.58213 -3.54606 1.35294 5.6638 -5.7316 2.63775 -4.7889 2.92498 3.59062 -0.0 0.0 0.0 -0.0 0.0 0.0 1.26853e-13 5.31684e-12 6.0971e-15 9.58008 7.25041 -0.391503 -3.40933 -1.57947 5.19349 0.00200178 0.747342 0.104966 2.07233e-09 -9.32286e-09 -1.79063e-09 3.57936e-09 -1.61069e-08 -3.09486e-09 2.07233e-09 -9.32286e-09 -1.79064e-09 7.73091 5.47488 0.417314 2.07232e-09 -9.32287e-09 -1.79063e-09 2.90554 0.965183 0.102902 2.07233e-09 -9.32286e-09 -1.79063e-09 10.2786 0.731801 0.0259123 2.07232e-09 -9.32286e-09 -1.79062e-09 2.22167 -0.733487 -0.20892 1.26692e-13 5.31684e-12 5.73758e-15 -9.44477 7.67338 -0.587312 2.55303 -1.0514 -4.04807 -0.0233968 2.56554 -0.357941 1.32321e-09 9.36414e-09 5.14698e-10 2.28815e-09 1.61682e-08 8.91909e-10 1.32321e-09 9.36415e-09 5.14708e-10 -7.73091 5.47488 -0.417314 1.32321e-09 9.36413e-09 5.14697e-10 -2.90554 0.965183 -0.102902 1.3232e-09 9.36413e-09 5.147e-10 -10.2786 0.731801 -0.0259123 1.32322e-09 9.36415e-09 5.14689e-10 -2.22167 -0.733487 0.20892 -2.03217e-16 0.0 -3.88251e-19 -8.44663 4.95117 -6.69433 0.0017934 9.12734 0.181029 -1.84504 -17.9705 -4.83129 2.03217e-16 0.0 3.88251e-19 0.989117 10.0345 1.20501 -0.00879333 -3.28978 -0.0292094 2.69936 -7.74974 11.2065
